<svg width="188" height="27" viewBox="0 0 188 27" fill="none" xmlns="http://www.w3.org/2000/svg">
<path d="M7.9655 25.5449C7.41609 25.5449 6.95344 25.0955 6.95344 24.5618V6.58424H2.67387C2.12446 6.58424 1.6618 6.13481 1.6618 5.6011V3.41009C1.6618 2.87638 2.12446 2.42694 2.67387 2.42694H16.3801C16.9295 2.42694 17.3921 2.87638 17.3921 3.41009V5.57301C17.3921 6.10672 16.9295 6.55615 16.3801 6.55615H11.927V24.5337C11.927 25.0674 11.4643 25.5168 10.9149 25.5168H7.9655V25.5449ZM35.7249 26.1348C29.5947 26.1348 26.4718 23.073 26.4718 17.0056C26.4718 13.3258 27.5995 10.6573 29.826 9.05615C31.6188 7.76402 33.614 7.59548 34.655 7.59548C37.6333 7.59548 42.6647 8.71908 42.6647 16.191C42.6647 17.4269 42.3756 18.5786 40.3515 18.5786H31.4453C31.7634 20.9944 33.2092 22.2022 35.7249 22.2022C36.9104 22.2022 38.1827 21.9775 39.484 21.5C39.5996 21.4719 39.7153 21.4438 39.831 21.4438C40.2358 21.4438 40.6406 21.6966 40.7852 22.0899L41.4213 23.8033C41.5948 24.2528 41.3924 24.7584 40.9587 25.0112C39.5996 25.7415 37.2285 26.1348 35.7249 26.1348ZM34.9731 11.2191C32.4574 11.2191 31.7345 13.2977 31.561 15.0674H38.096C37.9225 12.3708 36.9972 11.2191 34.9731 11.2191ZM58.2505 25.5449C57.7011 25.5449 57.2384 25.0955 57.2384 24.5618V14.0842C57.2384 11.7809 55.6191 11.4438 54.6649 11.4438C52.9588 11.4438 51.6287 12.0899 50.5588 13.4382C50.5877 13.691 50.5877 13.9719 50.5877 14.2809V24.5618C50.5877 25.0955 50.1251 25.5449 49.5757 25.5449H46.713C46.1636 25.5449 45.7009 25.0955 45.7009 24.5618V9.53368C45.7009 9.28087 45.8166 9.02806 45.9901 8.83144C46.1925 8.63481 46.4527 8.55054 46.713 8.55054H48.7082C49.1708 8.55054 49.5757 8.85953 49.6913 9.30896L49.7202 9.89885C50.3564 9.22469 52.1781 7.59548 55.3878 7.59548C58.2794 7.59548 62.1252 8.26964 62.1252 14.0842V24.5618C62.1252 25.0955 61.6626 25.5449 61.1132 25.5449H58.2505Z" fill="#5C514E"/>
<path d="M116.458 25.5449C115.909 25.5449 115.446 25.0955 115.446 24.5618V14.0842C115.446 11.7809 113.827 11.4438 112.873 11.4438C111.167 11.4438 109.837 12.0899 108.767 13.4382C108.796 13.691 108.796 13.9719 108.796 14.2809V24.5618C108.796 25.0955 108.333 25.5449 107.784 25.5449H104.921C104.372 25.5449 103.909 25.0955 103.909 24.5618V9.53368C103.909 9.28087 104.025 9.02806 104.198 8.83143C104.401 8.6348 104.661 8.55053 104.921 8.55053H106.916C107.379 8.55053 107.784 8.85952 107.899 9.30896L107.957 9.89884C108.593 9.22469 110.415 7.56738 113.625 7.56738C116.516 7.56738 120.362 8.24154 120.362 14.0561V24.5337C120.362 25.0674 119.899 25.5168 119.35 25.5168H116.458V25.5449Z" fill="#70A62D"/>
<path d="M72.9108 26.1348C69.8457 26.1348 64.6697 24.927 64.6697 16.8932C64.6697 13.691 65.5951 11.2472 67.4168 9.58988C69.3831 7.8483 71.7542 7.5674 72.9686 7.5674C74.7036 7.5674 76.294 8.07302 77.5085 9.02808V3.38201C77.5085 2.8483 77.9711 2.39886 78.5205 2.39886H81.3832C81.9326 2.39886 82.3953 2.8483 82.3953 3.38201V24.5337C82.3953 24.7865 82.2796 25.0393 82.1061 25.2359C81.9037 25.4326 81.6434 25.5168 81.3832 25.5168H78.8097C78.2892 25.5168 77.8554 25.1236 77.7976 24.618L77.7687 24.2528C76.8723 25.1236 75.3108 26.1348 72.9108 26.1348ZM73.7783 11.3595C71.6963 11.3595 69.4987 12.8202 69.4987 16.8932C69.4987 18.9157 70.0192 22.3146 73.6048 22.3146C75.1952 22.3146 76.7566 21.4438 77.5085 20.0955V13.1011C76.6699 11.9494 75.4265 11.3595 73.7783 11.3595Z" fill="#5C514E"/>
<path d="M152.285 25.5449C151.736 25.5449 151.273 25.0955 151.273 24.5618V14C151.273 12.3708 150.666 11.5842 149.394 11.5842C147.63 11.5842 146.676 12.5955 146.184 13.4382C146.213 13.691 146.213 13.9719 146.213 14.2809V24.5337C146.213 25.0674 145.75 25.5168 145.201 25.5168H142.28C141.731 25.5168 141.268 25.0674 141.268 24.5337V14C141.268 12.3708 140.661 11.5842 139.418 11.5842C138.03 11.5842 136.931 12.2022 136.179 13.4382C136.208 13.691 136.208 13.9719 136.208 14.2809V24.5337C136.208 25.0674 135.745 25.5168 135.196 25.5168H132.333C131.784 25.5168 131.321 25.0674 131.321 24.5337V9.53368C131.321 9.28087 131.437 9.02806 131.61 8.83144C131.813 8.63481 132.073 8.55054 132.333 8.55054H134.357C134.82 8.55054 135.254 8.85953 135.341 9.30896L135.398 9.95503C136.555 8.43818 138.29 7.62357 140.372 7.62357C142.772 7.62357 144.449 8.41009 145.374 9.95503C146.589 8.382 148.266 7.62357 150.406 7.62357C151.852 7.62357 156.247 7.62357 156.247 13.8876V24.5618C156.247 25.0955 155.784 25.5449 155.235 25.5449H152.285ZM183.515 25.9663C180.854 25.9663 177.703 24.9269 177.703 19.955V3.41009C177.703 2.87638 178.165 2.42694 178.715 2.42694H181.577C182.127 2.42694 182.589 2.87638 182.589 3.41009V19.618C182.589 21.0786 183.11 21.9213 184.035 21.9213C184.122 21.9213 184.238 21.9213 184.382 21.8932H184.498C184.903 21.8932 185.279 22.146 185.452 22.5112L186.233 24.3371C186.435 24.8427 186.204 25.4045 185.683 25.6292C185.076 25.8539 184.353 25.9663 183.515 25.9663Z" fill="#70A62D"/>
<path d="M20.1392 25.5449C19.5898 25.5449 19.1272 25.0955 19.1272 24.5618V9.53368C19.1272 8.99998 19.5898 8.55054 20.1392 8.55054H23.0308C23.5802 8.55054 24.0429 8.99998 24.0429 9.53368V24.5618C24.0429 25.0955 23.5802 25.5449 23.0308 25.5449H20.1392Z" fill="#5C514E"/>
<path d="M124.381 25.5449C123.832 25.5449 123.369 25.0955 123.369 24.5618V9.53367C123.369 8.99997 123.832 8.55053 124.381 8.55053H127.273C127.822 8.55053 128.285 8.99997 128.285 9.53367V24.5618C128.285 25.0955 127.822 25.5449 127.273 25.5449H124.381ZM92.3714 26.1348C88.0629 26.1348 85.287 23.9719 85.287 20.6292C85.287 18.4101 86.5015 14.7303 94.6558 14.7303C94.916 14.7303 95.263 14.7303 96.0438 14.7584V13.1854C96.0438 12.6797 96.0438 11.5 93.4413 11.5C92.3425 11.5 91.3594 11.6685 90.4051 12.0056C90.2895 12.0337 90.1738 12.0618 90.0581 12.0618C89.769 12.0618 89.4798 11.9494 89.3063 11.7247L87.8316 10.0955C87.6292 9.87075 87.5424 9.56176 87.6003 9.25278C87.6581 8.94379 87.8605 8.69098 88.1497 8.55053C89.422 7.93255 91.3594 7.56738 93.4702 7.56738C96.2173 7.56738 100.844 8.26963 100.844 13.0449V24.5337C100.844 25.0674 100.381 25.5168 99.8318 25.5168H97.3161C96.8534 25.5168 96.4775 25.2359 96.3329 24.8146C95.0028 25.7134 93.6726 26.1348 92.3714 26.1348ZM95.0606 17.9606C91.7353 17.9606 90.2316 18.7191 90.2316 20.3764C90.2316 21.7809 91.0991 22.455 92.863 22.455C94.251 22.455 95.263 22.0337 96.0438 21.6123V17.9887C95.5811 17.9606 95.2919 17.9606 95.0606 17.9606ZM166.31 26.1348C162.001 26.1348 159.225 23.9719 159.225 20.6292C159.225 18.4101 160.44 14.7303 168.594 14.7303C168.854 14.7303 169.201 14.7303 169.982 14.7584V13.1854C169.982 12.6797 169.982 11.5 167.38 11.5C166.281 11.5 165.298 11.6685 164.343 12.0056C164.228 12.0337 164.112 12.0618 163.996 12.0618C163.707 12.0618 163.418 11.9494 163.245 11.7247L161.77 10.0955C161.568 9.87075 161.481 9.56176 161.539 9.25278C161.596 8.94379 161.799 8.69098 162.088 8.55053C163.36 7.93255 165.298 7.56738 167.409 7.56738C170.156 7.56738 174.782 8.26963 174.782 13.0449V24.5337C174.782 25.0674 174.319 25.5168 173.77 25.5168H171.283C170.85 25.5168 170.445 25.2359 170.3 24.8146C168.941 25.7134 167.611 26.1348 166.31 26.1348ZM168.999 17.9606C165.674 17.9606 164.17 18.7191 164.17 20.3764C164.17 21.7809 165.037 22.455 166.801 22.455C168.189 22.455 169.172 22.0337 169.982 21.6123V17.9887C169.519 17.9606 169.23 17.9606 168.999 17.9606Z" fill="#70A62D"/>
<path d="M21.585 7.08985C20.2259 7.08985 19.0982 6.05052 19.0982 4.75839C19.0982 3.49434 20.2259 2.45502 21.585 2.45502C22.944 2.45502 24.0717 3.52243 24.0717 4.75839C24.0717 6.02243 22.9729 7.08985 21.585 7.08985Z" fill="#5C514E"/>
<path d="M125.827 7.11799C124.468 7.11799 123.34 6.07866 123.34 4.78653C123.34 3.52248 124.468 2.48315 125.827 2.48315C127.186 2.48315 128.314 3.55057 128.314 4.78653C128.314 6.07866 127.186 7.11799 125.827 7.11799Z" fill="#70A62D"/>
</svg>
